<?xml version="1.0" standalone="no"?><!DOCTYPE svg PUBLIC "-//W3C//DTD SVG 1.1//EN" "http://www.w3.org/Graphics/SVG/1.1/DTD/svg11.dtd"><svg t="1734426813833" class="icon" viewBox="0 0 1024 1024" version="1.1" xmlns="http://www.w3.org/2000/svg" p-id="6133" xmlns:xlink="http://www.w3.org/1999/xlink" width="200" height="200"><path d="M554.666667 213.333333a128 128 0 0 1 127.786666 120.490667L682.666667 341.333333v170.666667h128a128 128 0 0 1 127.786666 120.490667L938.666667 640v128a42.666667 42.666667 0 0 1-37.674667 42.368L896 810.666667H128a42.666667 42.666667 0 0 1-42.368-37.674667L85.333333 768v-213.333333a128 128 0 0 1 120.490667-127.786667L213.333333 426.666667h128V341.333333a128 128 0 0 1 120.490667-127.786666L469.333333 213.333333h85.333334z m0 64h-85.333334A64 64 0 0 0 405.333333 341.333333v405.333334h213.333334V341.333333A64 64 0 0 0 554.666667 277.333333z m256 298.666667h-128v170.666667h192V640a64 64 0 0 0-64-64z m-469.333334-85.333333H213.333333a64 64 0 0 0-63.701333 57.856L149.333333 554.666667v192H341.333333v-256z" fill="#ffffff" p-id="6134"></path></svg>